<svg version="1.2" xmlns="http://www.w3.org/2000/svg" viewBox="0 0 500 500" width="500" height="500">
	<title>Edit</title>
	<style>
		.s0 { fill: #000000 } 
	</style>
	<path id="Shape 1" class="s0" d="m236.5 334.3v-22.9h-21.5v-13.3l26-27.6 34.1 36.2-26 27.6zm111-163.5l-78.5 83.3q-3.8 4-7.4 0.2-3.6-3.8 0.2-7.8l78.5-83.3q3.8-4.1 7.4-0.3 3.6 3.9-0.2 7.9zm13.7 126.6q-4.5-1.9-7.9 1.6l-14.3 15.3q-2 2.1-2 5.2v30q0 15.7-10.6 26.9-10.5 11.1-25.3 11.1h-186.6q-14.8 0-25.3-11.1-10.5-11.2-10.5-26.9v-198q0-15.7 10.5-26.9 10.5-11.1 25.3-11.1h186.6q4.9 0 10.1 1.4 4 1.4 7.1-1.9l11-11.7q2.7-2.8 2-6.9-0.6-3.8-4-5.5-12.1-5.9-26.2-5.9h-186.6q-26.7 0-45.6 20.1-18.9 20.1-18.9 48.4v198q0 28.3 18.9 48.4 18.9 20.1 45.6 20.1h186.6q26.7 0 45.6-20.1 19-20.1 19-48.4v-45.2q0-5-4.5-6.9zm-167.7-8.8v68.5h64.5l150.7-159.9-64.6-68.5zm256.5-144.7q0-9.5-6.2-16.2l-34.1-36.1q-6.3-6.7-15.3-6.7-8.9 0-15.2 6.7l-20.7 21.9 64.6 68.5 20.7-21.9q6.2-6.7 6.2-16.2z"/>
</svg>